# xmcd
#
# Track frame offsets: 
#        150
#        11879
#        22708
#        34418
#        46375
#        56104
#        69099
#        79704
#        91125
#        102836
#        113238
#        124822
#
# Disc length: 1809 seconds
#
# Revision: 0
# Processed by: cddbd v1.5.2PL0 Copyright (c) Steve Scherf et al.
# Submitted via: ExactAudioCopyFreeDBPlugin 1.0
#
DISCID=92070f0c
DTITLE=Buck Owens - Country Singer's Prayer
DYEAR=2018
DGENRE=Country
TTITLE0=John Law
TTITLE1=Love Don't Make The Bars
TTITLE2=He Ain't Been Out Bowling With The Boys
TTITLE3=Drifting Away
TTITLE4=The Battle Of New Orleans
TTITLE5=Country Singer's Prayer
TTITLE6=California Okie
TTITLE7=A Different Kind Of Sad
TTITLE8=It's Been A Long, Long Time
TTITLE9=How's Everything
TTITLE10=Run Him To The Round House Nellie (You Might Corner Him There
TTITLE10=) (bonus track)
TTITLE11=Meanwhile Back At The Ranch (bonus track)
EXTD=
EXTT0=
EXTT1=
EXTT2=
EXTT3=
EXTT4=
EXTT5=
EXTT6=
EXTT7=
EXTT8=
EXTT9=
EXTT10=
EXTT11=
PLAYORDER=
